# Blender 3.4.1
# www.blender.org
mtllib tier1.v2.mtl
o building1
v 3.000000 3.886140 3.000000
v 3.000000 3.886140 -3.000000
v 0.362187 5.589565 -3.000000
v 0.362187 5.589565 3.000000
v 0.362187 5.632071 3.000000
v 0.000000 5.865962 3.000000
v 0.000000 5.865962 -3.000000
v 0.362187 5.632071 -3.000000
v 3.000000 3.828068 -3.000000
v 3.000000 3.828068 3.000000
v 2.952314 1.431782 3.000000
v 2.952314 1.431782 -3.000000
v 2.952314 3.828068 -3.000000
v 2.952314 0.000000 -3.000000
v 2.952314 0.000000 3.000000
v 2.952314 3.828068 3.000000
v 2.952314 1.431782 -0.486840
v 2.952314 0.000000 -0.486840
v 2.952314 3.828068 -0.486840
v 2.952314 1.431782 2.513160
v 2.952314 3.828068 2.513160
v 2.952314 0.000000 2.513160
v 2.952314 2.931782 3.000000
v 2.952314 2.931782 -3.000000
v 2.952314 2.931782 -0.486840
v 2.952314 2.931782 2.513160
v 2.850776 2.931782 -0.486840
v 2.850776 1.431782 -0.486840
v 2.850776 1.431782 2.513160
v 2.850776 2.931782 2.513160
v 2.952314 1.231704 -3.000000
v 2.952314 1.231704 3.000000
v 2.952314 1.231704 -0.486840
v 2.952314 1.231704 2.513160
v 3.030209 1.431782 -0.486840
v 3.030209 1.431782 2.513160
v 3.030209 1.231704 -0.486840
v 3.030209 1.231704 2.513160
v -3.000000 3.886140 3.000000
v -3.000000 3.886140 -3.000000
v -0.362187 5.589565 -3.000000
v -0.362187 5.589565 3.000000
v -0.362187 5.632071 3.000000
v -0.362187 5.632071 -3.000000
vn 1.0000 -0.0000 -0.0000
vn 0.5425 0.8401 -0.0000
vn -0.0000 1.0000 -0.0000
vn -0.0000 -0.0000 1.0000
vn -0.5425 0.8401 -0.0000
vn -1.0000 -0.0000 -0.0000
vt 0.057248 0.266305
vt 0.057248 0.250460
vt 0.462735 0.266305
vt 0.462735 0.250460
vt 0.462735 0.462665
vt 0.016932 0.498293
vt 0.057248 0.462665
vt 0.480035 0.498293
vt 0.480035 0.497068
vt 0.480035 0.484641
vt 0.016932 0.484641
vt 0.016932 0.497068
vt 0.462735 0.262365
vt 0.057248 0.262365
vt 0.012471 0.785904
vt 0.487588 0.785904
vt 0.487588 0.976283
vt 0.487588 0.673153
vt 0.012471 0.673153
vt 0.012471 0.976283
vt 0.615833 0.235272
vt 0.281405 0.785904
vt 0.241251 0.888658
vt 0.281405 0.673153
vt 0.281405 0.976283
vt 0.615833 0.415879
vt 0.054067 0.785904
vt 0.671327 0.362062
vt 0.054067 0.976283
vt 0.054067 0.673153
vt 0.012471 0.905309
vt 0.487588 0.905309
vt 0.281405 0.905309
vt 0.241251 0.770809
vt 0.054067 0.905309
vt 0.851426 0.000642
vt 0.249186 0.770809
vt 0.621946 0.235272
vt 0.851426 0.077632
vt 0.249186 0.888658
vt 0.621946 0.415879
vt 0.998008 0.077632
vt 0.998008 0.000642
vt 0.487588 0.770061
vt 0.012471 0.770061
vt 0.281405 0.770061
vt 0.054067 0.770061
vt 0.671327 0.390317
vt 0.611143 0.235272
vt 0.611143 0.415879
vt 0.660327 0.362062
vt 0.599098 0.235272
vt 0.599098 0.415879
vt 0.660327 0.390317
vt 0.049188 0.237064
vt 0.452666 0.237064
vt 0.452666 0.025909
vt 0.016932 0.470990
vt 0.049188 0.025909
vt 0.480035 0.470990
vt 0.480035 0.472215
vt 0.016932 0.472215
s 0
usemtl Material.001
f 9/13/1 2/3/1 1/1/1 10/14/1
f 2/4/2 3/5/2 4/7/2 1/2/2
f 8/12/2 7/11/2 6/10/2 5/9/2
f 4/8/1 3/6/1 8/12/1 5/9/1
f 34/47/1 20/27/1 11/15/1 32/45/1
f 26/35/1 21/29/1 16/20/1 23/31/1
f 24/32/1 13/17/1 19/25/1 25/33/1
f 31/44/1 12/16/1 17/22/1 33/46/1
f 25/33/1 19/25/1 21/29/1 26/35/1
f 17/21/3 20/26/3 36/50/3 35/49/3
f 20/26/3 17/21/3 28/38/3 29/41/3
f 12/16/1 24/32/1 25/33/1 17/22/1
f 20/27/1 26/35/1 23/31/1 11/15/1
f 28/39/1 27/36/1 30/43/1 29/42/1
f 17/23/4 25/34/4 27/37/4 28/40/4
f 18/24/1 33/46/1 34/47/1 22/30/1
f 14/18/1 31/44/1 33/46/1 18/24/1
f 22/30/1 34/47/1 32/45/1 15/19/1
f 37/52/1 35/49/1 36/50/1 38/53/1
f 20/28/4 34/48/4 38/54/4 36/51/4
f 40/56/5 39/55/5 42/59/5 41/57/5
f 44/62/5 43/61/5 6/10/5 7/11/5
f 42/60/6 43/61/6 44/62/6 41/58/6
o pillar
v 2.696472 -0.012800 3.423647
v 2.696472 4.338717 3.423647
v 2.696472 4.338717 2.987426
v 3.132693 -0.012800 3.423647
v 3.242159 4.338717 3.423647
v 3.132693 -0.012800 2.987426
v 3.242159 4.338717 2.987426
v 2.696472 3.616274 3.423647
v 3.132693 3.616274 2.987426
v 3.132693 3.616274 3.423647
v 2.696472 3.840580 3.423647
v 3.242159 3.840580 2.987426
v 3.242159 3.840580 3.423647
v -2.696473 -0.012800 3.423646
v -2.696473 4.338717 3.423646
v -2.696473 -0.012800 2.987426
v -2.696473 4.338717 2.987426
v -3.132693 -0.012800 3.423646
v -3.242159 4.338717 3.423646
v -3.242159 4.338717 2.987426
v -2.696473 3.616274 3.423646
v -2.696473 3.616274 2.987426
v -3.132693 3.616274 3.423646
v -2.696473 3.840580 3.423646
v -2.696473 3.840580 2.987426
v -3.242159 3.840580 3.423646
v 2.696472 4.338717 -3.423647
v 2.696472 -0.012800 -2.987427
v 2.696472 4.338717 -2.987427
v 3.132693 -0.012800 -3.423647
v 3.242159 4.338717 -3.423647
v 3.132693 -0.012800 -2.987427
v 3.242159 4.338717 -2.987427
v 2.696472 3.616274 -2.987427
v 3.132693 3.616274 -2.987427
v 3.132693 3.616274 -3.423647
v 2.696472 3.840580 -2.987427
v 3.242159 3.840580 -2.987427
v 3.242159 3.840580 -3.423647
v -2.696473 -0.012800 -3.423647
v -2.696473 4.338717 -3.423647
v -2.696473 -0.012800 -2.987427
v -2.696473 4.338717 -2.987427
v -3.242159 4.338717 -3.423647
v -3.132693 -0.012800 -2.987427
v -3.242159 4.338717 -2.987427
v -2.696473 3.616274 -3.423647
v -2.696473 3.616274 -2.987427
v -3.132693 3.616274 -2.987427
v -2.696473 3.840580 -3.423647
v -2.696473 3.840580 -2.987427
v -3.242159 3.840580 -2.987427
vn 1.0000 -0.0000 -0.0000
vn -0.0000 -0.0000 1.0000
vn -0.0000 1.0000 -0.0000
vn 0.8987 -0.4386 -0.0000
vt 0.128835 0.574871
vt 0.128835 0.922414
vt 0.450186 0.546488
vt 0.450186 0.528771
vt 0.163675 0.574871
vt 0.223911 0.574871
vt 0.223911 0.922414
vt 0.172418 0.922414
vt 0.428024 0.546488
vt 0.258674 0.574871
vt 0.258674 0.922414
vt 0.428024 0.528772
vt 0.128835 0.864715
vt 0.258674 0.864715
vt 0.163675 0.864715
vt 0.223911 0.864715
vt 0.128835 0.882629
vt 0.258674 0.882629
vt 0.172418 0.882629
vt 0.223911 0.882629
vt 0.216087 0.574871
vt 0.348413 0.575251
vt 0.348413 0.923193
vt 0.216087 0.922414
vt 0.403533 0.571202
vt 0.383292 0.575251
vt 0.383292 0.923193
vt 0.403533 0.553925
vt 0.181248 0.574871
vt 0.172505 0.922414
vt 0.425145 0.571202
vt 0.425145 0.553925
vt 0.216087 0.864715
vt 0.348413 0.865427
vt 0.383292 0.865427
vt 0.181248 0.864715
vt 0.216087 0.882629
vt 0.348413 0.883362
vt 0.383292 0.883362
vt 0.172505 0.882629
vt 0.472364 0.528772
vt 0.128827 0.574871
vt 0.128827 0.922414
vt 0.472364 0.546488
vt 0.293481 0.574871
vt 0.293481 0.922414
vt 0.450202 0.528772
vt 0.258718 0.574871
vt 0.163667 0.574871
vt 0.172409 0.922414
vt 0.258718 0.922414
vt 0.450202 0.546488
vt 0.128827 0.864715
vt 0.258718 0.864715
vt 0.163667 0.864715
vt 0.293481 0.864715
vt 0.128827 0.882629
vt 0.258718 0.882629
vt 0.172409 0.882629
vt 0.293481 0.882629
vt 0.348369 0.575251
vt 0.348369 0.923193
vt 0.425160 0.553926
vt 0.216098 0.574871
vt 0.313489 0.575251
vt 0.313489 0.923193
vt 0.216099 0.922414
vt 0.425160 0.571202
vt 0.446773 0.553926
vt 0.181259 0.574871
vt 0.172516 0.922414
vt 0.446773 0.571202
vt 0.348369 0.865427
vt 0.216098 0.864715
vt 0.313489 0.865427
vt 0.181259 0.864715
vt 0.348369 0.883362
vt 0.216098 0.882629
vt 0.313489 0.883362
vt 0.172516 0.882629
s 0
usemtl Material.001
f 56/80/7 51/73/7 49/69/7 57/82/7
f 57/81/8 49/70/8 46/64/8 55/79/8
f 51/74/9 47/66/9 46/65/9 49/71/9
f 48/67/8 54/77/8 52/75/8 45/63/8
f 50/72/7 53/76/7 54/78/7 48/68/7
f 54/77/8 57/81/8 55/79/8 52/75/8
f 53/76/10 56/80/10 57/82/10 54/78/10
f 68/100/7 69/101/7 61/89/7 59/85/7
f 70/102/8 68/99/8 59/86/8 63/92/8
f 64/94/9 63/93/9 59/87/9 61/90/9
f 62/91/8 58/83/8 65/95/8 67/98/8
f 58/84/7 60/88/7 66/97/7 65/96/7
f 67/98/8 65/95/8 68/99/8 70/102/8
f 65/96/7 66/97/7 69/101/7 68/100/7
f 81/119/8 82/121/8 77/112/8 73/105/8
f 82/120/7 83/122/7 75/108/7 77/113/7
f 77/114/9 75/109/9 71/103/9 73/106/9
f 76/110/7 74/107/7 80/118/7 79/116/7
f 72/104/8 76/111/8 79/117/8 78/115/8
f 79/116/10 80/118/10 83/122/10 82/120/10
f 78/115/8 79/117/8 82/121/8 81/119/8
f 94/139/7 85/124/7 87/128/7 95/141/7
f 95/140/8 87/129/8 90/133/8 96/142/8
f 90/134/9 87/130/9 85/125/9 88/131/9
f 86/126/8 92/136/8 93/138/8 89/132/8
f 84/123/7 91/135/7 92/137/7 86/127/7
f 92/136/8 95/140/8 96/142/8 93/138/8
f 91/135/7 94/139/7 95/141/7 92/137/7
o facade
v 2.793512 3.834051 3.365353
v 0.000000 5.638022 3.365353
v 0.000000 6.091121 3.000000
v 3.000000 4.153805 3.000000
v 0.000000 6.091121 3.365353
v 3.000000 4.153805 3.365353
v 0.000000 3.834051 3.365353
v 3.000000 3.442868 3.365353
v 0.000000 3.442869 3.365353
v 3.000000 3.442868 3.312009
v 3.000000 0.000000 3.312009
v 0.000000 5.638022 3.312009
v 2.793512 3.834051 3.312009
v 0.000000 3.442869 3.312009
v 0.000000 3.834051 3.312009
v 2.154151 2.963535 3.312009
v 2.154151 0.000000 3.312009
v 0.000000 2.963536 3.312009
v 2.154151 2.963535 3.134107
v 2.154151 0.000000 3.134107
v 0.000000 2.963536 3.134107
v 0.000000 0.000000 3.134107
v -2.793512 3.834051 3.365353
v -3.000000 4.153805 3.000000
v -3.000000 4.153805 3.365353
v -3.000000 3.442868 3.365353
v -3.000000 3.442868 3.312009
v -3.000000 0.000000 3.312009
v -2.793512 3.834051 3.312009
v -2.154151 2.963535 3.312009
v -2.154151 0.000000 3.312009
v -2.154151 2.963535 3.134107
v -2.154151 0.000000 3.134107
v 3.000000 3.886140 -3.000000
v 0.000000 5.823456 -3.000000
v 0.000000 6.091121 -3.000000
v 3.000000 4.153805 -3.000000
v 0.000000 6.091121 -3.365353
v 3.000000 4.153805 -3.365353
v -3.000000 3.886140 -3.000000
v -3.000000 4.153805 -3.000000
v -3.000000 4.153805 -3.365353
vn -0.0000 1.0000 -0.0000
vn 0.5425 0.8401 -0.0000
vn -0.0000 -0.0000 1.0000
vn -0.5425 0.8401 -0.0000
vn 0.5425 -0.8401 -0.0000
vn 1.0000 -0.0000 -0.0000
vt 0.519852 0.716519
vt 0.388729 0.829202
vt 0.519823 0.745381
vt 0.136945 0.829202
vt 0.337975 0.829201
vt 0.245618 0.911381
vt 0.118278 0.830797
vt 0.356683 0.830797
vt 0.389166 0.830797
vt 0.118278 0.803084
vt 0.118334 0.858022
vt 0.356683 0.803122
vt 0.356586 0.858021
vt 0.389166 0.803084
vt 0.388729 0.858022
vt 0.286184 0.716519
vt 0.286184 0.745381
vt 0.537093 0.712664
vt 0.286184 0.712664
vt 0.488579 0.949817
vt 0.488579 0.674766
vt 0.248914 0.917662
vt 0.248082 0.907583
vt 0.519852 0.720981
vt 0.488579 0.762893
vt 0.248909 0.949817
vt 0.286184 0.720981
vt 0.248914 0.762893
vt 0.421004 0.911523
vt 0.421004 0.674766
vt 0.248909 0.911523
vt 0.700658 0.683248
vt 0.700658 0.854330
vt 0.825015 0.683248
vt 0.825015 0.854330
vt 0.052516 0.716519
vt 0.086191 0.829201
vt 0.052545 0.745381
vt 0.008877 0.757730
vt 0.086172 0.830797
vt 0.086172 0.803122
vt 0.086191 0.858021
vt 0.035275 0.712664
vt 0.009239 0.949817
vt 0.009239 0.674766
vt 0.052516 0.720981
vt 0.009249 0.762893
vt 0.011341 0.753933
vt 0.076813 0.911523
vt 0.246308 0.637419
vt 0.076814 0.674766
vt 0.246308 0.875947
vt 0.949372 0.683248
vt 0.231990 0.637419
vt 0.949372 0.854330
vt 0.231990 0.875947
vt 0.422320 0.703375
vt 0.156736 0.703375
vt 0.417741 0.703366
vt 0.145938 0.720097
vt 0.158238 0.752060
vt 0.428555 0.720112
vt 0.146336 0.773006
vt 0.411521 0.720097
vt 0.424977 0.752060
vt 0.158238 0.779349
vt 0.146336 0.745797
vt 0.424977 0.779349
vt 0.151781 0.703366
vt 0.162595 0.720112
vt 0.412296 0.773006
vt 0.412296 0.745797
s 0
usemtl Material.001
f 103/158/11 97/143/11 109/166/11 111/169/11
f 100/151/12 99/149/12 101/152/12 102/156/12
f 98/146/13 97/144/13 102/157/13 101/153/13
f 97/145/13 103/159/13 105/161/13 104/160/13
f 108/164/13 111/170/13 109/167/13
f 112/171/13 113/172/13 107/163/13 106/162/13
f 115/174/13 117/176/13 118/177/13 116/175/13
f 114/173/13 112/171/13 106/162/13 110/168/13
f 103/158/11 111/169/11 125/188/11 119/178/11
f 120/182/14 121/183/14 101/154/14 99/150/14
f 98/147/13 101/155/13 121/184/13 119/179/13
f 119/180/13 122/185/13 105/161/13 103/159/13
f 108/164/13 125/189/13 111/170/13
f 119/181/15 125/190/15 108/165/15 98/148/15
f 126/191/13 123/186/13 124/187/13 127/193/13
f 128/195/13 129/197/13 118/177/13 117/176/13
f 114/173/13 110/168/13 123/186/13 126/191/13
f 127/194/16 129/198/16 128/196/16 126/192/16
f 130/199/13 133/206/13 132/202/13 131/200/13
f 133/207/12 135/210/12 134/208/12 132/203/12
f 136/211/13 131/201/13 132/204/13 137/212/13
f 137/213/14 132/205/14 134/209/14 138/214/14
o doorArch
v -2.215144 2.501112 3.327538
v -2.356702 2.939018 3.327538
v -2.356702 2.939018 2.940676
v 2.215144 2.501112 3.327538
v 2.356702 2.939018 3.327538
v 2.215144 2.501112 2.940676
v 2.356702 2.939018 2.940676
v -1.885362 3.109728 2.940676
v -1.414021 3.225308 2.940676
v -0.942681 3.301283 2.940676
v -0.471341 3.344709 2.940676
v 0.000000 3.358861 2.940676
v 0.471341 3.344709 2.940676
v 0.942681 3.301283 2.940676
v 1.414021 3.225308 2.940676
v 1.885362 3.109728 2.940676
v -1.772115 2.645144 3.327538
v -1.329086 2.745072 3.327538
v -0.886057 2.811552 3.327538
v -0.443029 2.849789 3.327538
v 0.000000 2.862284 3.327538
v 0.443029 2.849789 3.327538
v 0.886057 2.811552 3.327538
v 1.329086 2.745072 3.327538
v 1.772115 2.645144 3.327538
v 1.885362 3.109728 3.327538
v 1.414021 3.225308 3.327538
v 0.942681 3.301283 3.327538
v 0.471341 3.344709 3.327538
v 0.000000 3.358861 3.327538
v -0.471341 3.344709 3.327538
v -0.942681 3.301283 3.327538
v -1.414021 3.225308 3.327538
v -1.885362 3.109728 3.327538
vn 0.9515 -0.3076 -0.0000
vn -0.0000 -0.0000 1.0000
vn -0.3405 0.9402 -0.0000
vn 0.3405 0.9402 -0.0000
vn 0.2382 0.9712 -0.0000
vn 0.1591 0.9873 -0.0000
vn 0.0917 0.9958 -0.0000
vn 0.0300 0.9995 -0.0000
vn -0.0300 0.9995 -0.0000
vn -0.0917 0.9958 -0.0000
vn -0.1591 0.9873 -0.0000
vn -0.2382 0.9712 -0.0000
vt 0.198108 0.591483
vt 0.162182 0.591478
vt 0.421381 0.614666
vt 0.277500 0.614666
vt 0.103226 0.559528
vt 0.198108 0.871284
vt 0.075520 0.559528
vt 0.421381 0.911336
vt 0.162182 0.871289
vt 0.103226 0.590929
vt 0.075520 0.590929
vt 0.277500 0.911336
vt 0.277500 0.666178
vt 0.277500 0.702627
vt 0.277500 0.728926
vt 0.277500 0.748040
vt 0.277500 0.763001
vt 0.277500 0.777962
vt 0.277500 0.797076
vt 0.277500 0.823374
vt 0.277500 0.859823
vt 0.198108 0.619463
vt 0.198108 0.647443
vt 0.198108 0.675423
vt 0.198108 0.703404
vt 0.198108 0.731384
vt 0.198108 0.759364
vt 0.198108 0.787344
vt 0.198108 0.815324
vt 0.198108 0.843304
vt 0.421381 0.859823
vt 0.162182 0.843308
vt 0.421381 0.823374
vt 0.162182 0.815327
vt 0.421381 0.797076
vt 0.162182 0.787346
vt 0.421381 0.777962
vt 0.162182 0.759365
vt 0.421381 0.763001
vt 0.162182 0.731384
vt 0.421381 0.748040
vt 0.162182 0.703403
vt 0.421381 0.728926
vt 0.162182 0.675421
vt 0.421381 0.702628
vt 0.162182 0.647440
vt 0.421381 0.666179
vt 0.162182 0.619459
s 0
usemtl Material.001
f 144/224/17 145/225/17 143/221/17 142/219/17
f 155/236/18 172/262/18 140/216/18 139/215/18
f 146/227/19 141/218/19 140/217/19 172/261/19
f 145/226/20 154/235/20 164/245/20 143/222/20
f 154/235/21 153/234/21 165/247/21 164/245/21
f 153/234/22 152/233/22 166/249/22 165/247/22
f 152/233/23 151/232/23 167/251/23 166/249/23
f 151/232/24 150/231/24 168/253/24 167/251/24
f 150/231/25 149/230/25 169/255/25 168/253/25
f 149/230/26 148/229/26 170/257/26 169/255/26
f 148/229/27 147/228/27 171/259/27 170/257/27
f 147/228/28 146/227/28 172/261/28 171/259/28
f 142/220/18 143/223/18 164/246/18 163/244/18
f 163/244/18 164/246/18 165/248/18 162/243/18
f 162/243/18 165/248/18 166/250/18 161/242/18
f 161/242/18 166/250/18 167/252/18 160/241/18
f 160/241/18 167/252/18 168/254/18 159/240/18
f 159/240/18 168/254/18 169/256/18 158/239/18
f 158/239/18 169/256/18 170/258/18 157/238/18
f 157/238/18 170/258/18 171/260/18 156/237/18
f 156/237/18 171/260/18 172/262/18 155/236/18
o chimney
v 2.375144 2.439648 -1.422721
v 2.935939 2.439648 -0.861926
v 3.729023 2.439648 -0.861926
v 4.289818 2.439648 -1.422721
v 4.289818 2.439648 -2.215805
v 3.729023 2.439648 -2.776600
v 2.613595 7.479182 -1.521491
v 3.034709 7.479182 -1.100377
v 3.630253 7.479182 -1.100377
v 4.051366 7.479182 -1.521491
v 4.051366 7.479182 -2.117035
v 3.630253 7.479182 -2.538148
v 2.551531 7.631835 -1.495783
v 3.009001 7.631835 -1.038313
v 3.655961 7.631835 -1.038313
v 4.113431 7.631835 -1.495782
v 4.113431 7.631835 -2.142743
v 3.655961 7.631835 -2.600213
v 2.922033 1.166538 -0.828353
v 4.323391 1.166538 -0.828353
v 4.323391 1.166538 -2.810173
v 2.922033 -0.027842 -0.828353
v 4.323391 -0.027842 -0.828353
v 4.323391 -0.027842 -2.810173
v 2.551531 8.260239 -1.495783
v 3.009001 8.260239 -1.038313
v 3.655961 8.260239 -1.038313
v 4.113431 8.260239 -1.495782
v 4.113431 8.260239 -2.142743
v 3.655961 8.260239 -2.600213
v 3.049184 8.412358 -2.503202
v 2.648541 8.412358 -2.102560
v 2.648541 8.412358 -1.535966
v 3.049184 8.412358 -1.135323
v 3.615778 8.412358 -1.135323
v 4.016420 8.412358 -1.535965
v 4.016421 8.412358 -2.102560
v 3.615778 8.412358 -2.503202
v 3.106472 8.412358 -2.364897
v 2.786847 8.412358 -2.045272
v 2.786846 8.412358 -1.593253
v 3.106472 8.412358 -1.273628
v 3.558490 8.412358 -1.273628
v 3.878115 8.412358 -1.593253
v 3.878116 8.412358 -2.045272
v 3.558490 8.412358 -2.364897
v 3.106472 6.437023 -2.364897
v 2.786847 6.437023 -2.045272
v 2.786846 6.437023 -1.593253
v 3.106472 6.437023 -1.273628
v 3.878116 6.437023 -2.045272
v 3.558490 6.437023 -2.364897
vn 0.7063 0.0473 -0.7063
vn 0.7063 0.0473 0.7063
vn -0.7063 0.0473 0.7063
vn 0.9989 0.0473 -0.0000
vn -0.0000 0.0473 0.9989
vn 0.9264 -0.3766 -0.0000
vn -0.0000 -0.3766 0.9264
vn 0.6550 -0.3766 -0.6550
vn 0.6550 -0.3766 0.6550
vn -0.6550 -0.3766 0.6550
vn 0.6677 0.3293 -0.6677
vn 0.6677 0.3293 0.6677
vn 0.9997 0.0264 -0.0000
vn -0.0000 0.0264 0.9997
vn -0.0000 -0.0000 1.0000
vn 1.0000 -0.0000 -0.0000
vn 0.7071 -0.0000 -0.7071
vn 0.7071 -0.0000 0.7071
vn -0.7071 -0.0000 0.7071
vn 0.8431 0.5377 -0.0000
vn -0.0000 0.5377 0.8431
vn 0.5962 0.5377 -0.5962
vn 0.5962 0.5377 0.5962
vn -0.5962 0.5377 0.5962
vn -0.0000 1.0000 -0.0000
vt 0.322960 0.638763
vt 0.278454 0.638763
vt 0.213566 0.638733
vt 0.248029 0.638730
vt 0.169060 0.638733
vt 0.203524 0.638730
vt 0.102352 0.638733
vt 0.285507 0.638730
vt 0.057846 0.638733
vt 0.241001 0.638730
vt 0.317417 0.921883
vt 0.208023 0.921853
vt 0.283996 0.921883
vt 0.174603 0.921853
vt 0.242487 0.921850
vt 0.096809 0.921853
vt 0.209067 0.921850
vt 0.063389 0.921853
vt 0.279964 0.921850
vt 0.246544 0.921850
vt 0.318859 0.931130
vt 0.282554 0.931130
vt 0.209465 0.931100
vt 0.243929 0.931098
vt 0.173160 0.931100
vt 0.207624 0.931098
vt 0.098252 0.931100
vt 0.281407 0.931098
vt 0.061946 0.931100
vt 0.245101 0.931098
vt 0.214346 0.567265
vt 0.225777 0.567265
vt 0.135706 0.567265
vt 0.263254 0.567265
vt 0.024492 0.567265
vt 0.214346 0.500240
vt 0.135706 0.500240
vt 0.024492 0.500240
vt 0.318859 0.966394
vt 0.209465 0.966365
vt 0.282554 0.966394
vt 0.173160 0.966364
vt 0.243929 0.966362
vt 0.098252 0.966365
vt 0.207624 0.966362
vt 0.061946 0.966365
vt 0.281407 0.966362
vt 0.245101 0.966362
vt 0.349993 0.735010
vt 0.324984 0.735010
vt 0.425005 0.735007
vt 0.316604 0.976519
vt 0.400019 0.735007
vt 0.207210 0.976489
vt 0.284809 0.976519
vt 0.375019 0.735007
vt 0.175415 0.976489
vt 0.241674 0.976486
vt 0.350019 0.735007
vt 0.095997 0.976489
vt 0.209879 0.976486
vt 0.425054 0.735010
vt 0.325033 0.735007
vt 0.064201 0.976489
vt 0.279152 0.976487
vt 0.400046 0.735010
vt 0.247356 0.976487
vt 0.375019 0.735010
vt 0.350013 0.728013
vt 0.416682 0.508230
vt 0.325026 0.728013
vt 0.424980 0.727982
vt 0.391316 0.508230
vt 0.400006 0.727982
vt 0.365951 0.508230
vt 0.375019 0.727982
vt 0.340585 0.508230
vt 0.350032 0.727982
vt 0.425013 0.728013
vt 0.325058 0.727982
vt 0.400025 0.728013
vt 0.467414 0.508230
vt 0.375019 0.728013
vt 0.442048 0.508230
vt 0.416682 0.619079
vt 0.391316 0.619079
vt 0.365951 0.619079
vt 0.340585 0.619079
vt 0.467414 0.619079
vt 0.442048 0.619079
s 0
usemtl Material.001
f 177/270/29 178/272/29 184/282/29 183/281/29
f 175/266/30 176/268/30 182/279/30 181/277/30
f 173/263/31 174/264/31 180/275/31 179/273/31
f 176/269/32 177/271/32 183/280/32 182/278/32
f 174/265/33 175/267/33 181/276/33 180/274/33
f 183/280/34 189/291/34 188/289/34 182/278/34
f 181/276/35 187/287/35 186/285/35 180/274/35
f 184/282/36 190/292/36 189/290/36 183/281/36
f 182/279/37 188/288/37 187/286/37 181/277/37
f 180/275/38 186/284/38 185/283/38 179/273/38
f 177/270/39 193/296/39 178/272/39
f 175/266/40 192/294/40 176/268/40
f 176/269/41 192/295/41 193/297/41 177/271/41
f 174/265/42 191/293/42 192/295/42 175/267/42
f 191/293/43 194/298/43 195/299/43 192/295/43
f 192/295/44 195/299/44 196/300/44 193/297/44
f 190/292/45 202/310/45 201/309/45 189/290/45
f 188/288/46 200/307/46 199/305/46 187/286/46
f 186/284/47 198/303/47 197/301/47 185/283/47
f 189/291/44 201/308/44 200/306/44 188/289/44
f 187/287/43 199/304/43 198/302/43 186/285/43
f 201/308/48 209/326/48 208/322/48 200/306/48
f 199/304/49 207/319/49 206/316/49 198/302/49
f 202/310/50 210/329/50 209/327/50 201/309/50
f 200/307/51 208/323/51 207/320/51 199/305/51
f 198/303/52 206/317/52 205/314/52 197/301/52
f 206/318/53 214/338/53 213/336/53 205/315/53
f 204/312/53 212/333/53 211/331/53 203/311/53
f 203/311/53 211/331/53 218/345/53 210/330/53
f 209/328/53 217/343/53 216/341/53 208/324/53
f 207/321/53 215/340/53 214/338/53 206/318/53
f 205/315/53 213/336/53 212/334/53 204/313/53
f 210/330/53 218/345/53 217/343/53 209/328/53
f 208/325/53 216/342/53 215/340/53 207/321/53
f 218/346/47 224/352/47 223/351/47 217/344/47
f 214/339/45 222/350/45 221/349/45 213/337/45
f 212/335/46 220/348/46 219/347/46 211/332/46
f 211/332/43 219/347/43 224/352/43 218/346/43
f 213/337/44 221/349/44 220/348/44 212/335/44
o windowArch
v 2.979029 2.630625 2.539527
v 2.979029 2.932812 2.637213
v 2.712066 2.630625 2.539527
v 2.712066 2.932812 2.637213
v 2.979029 2.630625 -0.517701
v 2.979029 2.932812 -0.615387
v 2.712065 2.932812 -0.615387
v 2.712066 3.130374 1.986693
v 2.712066 3.212770 1.336173
v 2.712066 3.212770 0.685653
v 2.712066 3.130374 0.035133
v 2.979029 2.798975 1.928081
v 2.979029 2.871238 1.316636
v 2.979029 2.871238 0.705190
v 2.979029 2.798975 0.093745
v 2.979029 3.130374 0.035133
v 2.979029 3.212770 0.685653
v 2.979029 3.212770 1.336173
v 2.979029 3.130374 1.986693
vn -0.0000 -0.3076 0.9515
vn -0.0000 0.9921 0.1257
vn 1.0000 -0.0000 -0.0000
vn -0.0000 0.9568 -0.2906
vn -0.0000 0.9921 -0.1257
vn -0.0000 1.0000 -0.0000
vn -0.0000 0.9568 0.2906
vt 0.150781 0.642150
vt 0.112382 0.615998
vt 0.083077 0.616021
vt 0.150737 0.615528
vt 0.173160 0.642150
vt 0.173160 0.615528
vt 0.128358 0.615528
vt 0.112382 0.894359
vt 0.083077 0.894336
vt 0.150737 0.893974
vt 0.128358 0.893974
vt 0.128358 0.672518
vt 0.128358 0.727485
vt 0.128358 0.782016
vt 0.128358 0.836983
vt 0.112382 0.671670
vt 0.112382 0.727342
vt 0.112382 0.783014
vt 0.112382 0.838687
vt 0.083077 0.838673
vt 0.150737 0.836983
vt 0.083077 0.783010
vt 0.150737 0.782016
vt 0.083077 0.727347
vt 0.150737 0.727485
vt 0.083077 0.671684
vt 0.150737 0.672518
s 0
usemtl Material.001
f 225/353/54 226/356/54 228/358/54 227/357/54
f 232/364/55 243/379/55 242/377/55 233/365/55
f 230/361/56 240/372/56 239/371/56 229/360/56
f 236/368/56 243/378/56 226/355/56 225/354/56
f 242/376/56 243/378/56 236/368/56 237/369/56
f 241/374/56 242/376/56 237/369/56 238/370/56
f 240/372/56 241/374/56 238/370/56 239/371/56
f 231/363/57 235/367/57 240/373/57 230/362/57
f 234/366/58 241/375/58 240/373/58 235/367/58
f 233/365/59 242/377/59 241/375/59 234/366/59
f 232/364/60 228/359/60 226/356/60 243/379/60
