# Blender 3.4.1
# www.blender.org
mtllib flat.mtl
o terrain
v -50.000000 -6.000000 50.000000
v 50.000000 -3.000000 50.000000
v -50.000000 -6.000000 -50.000000
v 50.000000 -6.000000 -50.000000
v -40.000000 -3.000000 50.000000
v -30.000000 -3.000000 50.000000
v -20.000000 -3.000000 50.000000
v -10.000000 -3.000000 50.000000
v 0.000000 -3.000000 50.000000
v 10.000000 -3.000000 50.000000
v 20.000000 -3.000000 50.000000
v 30.000000 -3.000000 50.000000
v 40.000000 -3.000000 50.000000
v 40.000000 -6.000000 -50.000000
v 30.000000 -3.000000 -50.000000
v 20.000000 -3.000000 -50.000000
v 10.000000 -3.000000 -50.000000
v 0.000000 -3.000000 -50.000000
v -10.000000 -3.000000 -50.000000
v -20.000000 -3.000000 -50.000000
v -30.000000 -6.000000 -50.000000
v -40.000000 -6.000000 -50.000000
v -50.000000 -6.000000 -40.000000
v -50.000000 -6.000000 -30.000000
v -50.000000 -3.000000 -20.000000
v -50.000000 -3.000000 -10.000000
v -50.000000 -3.000000 0.000000
v -50.000000 -3.000000 10.000000
v -50.000000 -3.000000 20.000000
v -50.000000 -3.000000 30.000000
v -50.000000 -3.000000 40.000000
v 50.000000 -3.000000 40.000000
v 50.000000 0.000000 30.000000
v 50.000000 0.000000 20.000000
v 50.000000 0.000000 10.000000
v 50.000000 0.000000 0.000000
v 50.000000 -3.000000 -10.000000
v 50.000000 -6.000000 -20.000000
v 50.000000 -6.000000 -30.000000
v 50.000000 -6.000000 -40.000000
v -40.000000 -3.000000 40.000000
v -40.000000 0.000000 30.000000
v -40.000000 0.000000 20.000000
v -40.000000 0.000000 10.000000
v -40.000000 0.000000 0.000000
v -40.000000 0.000000 -10.000000
v -40.000000 -3.000000 -20.000000
v -40.000000 -6.000000 -30.000000
v -40.000000 -6.000000 -40.000000
v -30.000000 0.000000 40.000000
v -30.000000 0.000000 30.000000
v -30.000000 0.000000 20.000000
v -30.000000 0.000000 10.000000
v -30.000000 0.000000 0.000000
v -30.000000 0.000000 -10.000000
v -30.000000 -3.000000 -20.000000
v -30.000000 -3.000000 -30.000000
v -30.000000 -3.000000 -40.000000
v -20.000000 0.000000 40.000000
v -20.000000 3.000000 30.000000
v -20.000000 3.000000 20.000000
v -20.000000 3.000000 10.000000
v -20.000000 3.000000 0.000000
v -20.000000 0.000000 -10.000000
v -20.000000 0.000000 -20.000000
v -20.000000 0.000000 -30.000000
v -20.000000 -3.000000 -40.000000
v -10.000000 0.000000 40.000000
v -10.000000 3.000000 30.000000
v -10.000000 6.000000 20.000000
v -10.000000 6.000000 10.000000
v -10.000000 3.000000 0.000000
v -10.000000 3.000000 -10.000000
v -10.000000 3.000000 -20.000000
v -10.000000 0.000000 -30.000000
v -10.000000 -3.000000 -40.000000
v 0.000000 0.000000 40.000000
v 0.000000 3.000000 30.000000
v 0.000000 6.000000 20.000000
v 0.000000 6.000000 10.000000
v 0.000000 3.000000 0.000000
v 0.000000 3.000000 -10.000000
v 0.000000 3.000000 -20.000000
v 0.000000 0.000000 -30.000000
v 0.000000 0.000000 -40.000000
v 10.000000 0.000000 40.000000
v 10.000000 3.000000 30.000000
v 10.000000 3.000000 20.000000
v 10.000000 3.000000 10.000000
v 10.000000 3.000000 0.000000
v 10.000000 3.000000 -10.000000
v 10.000000 3.000000 -20.000000
v 10.000000 0.000000 -30.000000
v 10.000000 0.000000 -40.000000
v 20.000000 0.000000 40.000000
v 20.000000 0.000000 30.000000
v 20.000000 0.000000 20.000000
v 20.000000 0.000000 10.000000
v 20.000000 0.000000 0.000000
v 20.000000 0.000000 -10.000000
v 20.000000 0.000000 -20.000000
v 20.000000 0.000000 -30.000000
v 20.000000 0.000000 -40.000000
v 30.000000 0.000000 40.000000
v 30.000000 0.000000 30.000000
v 30.000000 0.000000 20.000000
v 30.000000 0.000000 10.000000
v 30.000000 0.000000 0.000000
v 30.000000 0.000000 -10.000000
v 30.000000 -3.000000 -20.000000
v 30.000000 -3.000000 -30.000000
v 30.000000 -3.000000 -40.000000
v 40.000000 0.000000 40.000000
v 40.000000 0.000000 30.000000
v 40.000000 0.000000 20.000000
v 40.000000 0.000000 10.000000
v 40.000000 0.000000 0.000000
v 40.000000 -3.000000 -10.000000
v 40.000000 -3.000000 -20.000000
v 40.000000 -6.000000 -30.000000
v 40.000000 -6.000000 -40.000000
v 60.000000 -6.000000 50.000000
v 60.000000 -6.000000 -50.000000
v 60.000000 -3.000000 40.000000
v 60.000000 -3.000000 30.000000
v 60.000000 -3.000000 20.000000
v 60.000000 -3.000000 10.000000
v 60.000000 -3.000000 0.000000
v 60.000000 -3.000000 -10.000000
v 60.000000 -6.000000 -20.000000
v 60.000000 -6.000000 -30.000000
v 60.000000 -6.000000 -40.000000
v -50.000000 -6.000000 -60.000000
v 50.000000 -6.000000 -60.000000
v 40.000000 -6.000000 -60.000000
v 30.000000 -6.000000 -60.000000
v 20.000000 -6.000000 -60.000000
v 10.000000 -6.000000 -60.000000
v 0.000000 -6.000000 -60.000000
v -10.000000 -6.000000 -60.000000
v -20.000000 -6.000000 -60.000000
v -30.000000 -6.000000 -60.000000
v -40.000000 -6.000000 -60.000000
v 60.000000 -6.000000 -60.000000
v -60.000000 -6.000000 50.000000
v -60.000000 -6.000000 -50.000000
v -60.000000 -6.000000 -40.000000
v -60.000000 -6.000000 -30.000000
v -60.000000 -6.000000 -20.000000
v -60.000000 -6.000000 -10.000000
v -60.000000 -6.000000 0.000000
v -60.000000 -6.000000 10.000000
v -60.000000 -6.000000 20.000000
v -60.000000 -6.000000 30.000000
v -60.000000 -6.000000 40.000000
v -60.000000 -6.000000 -60.000000
v -50.000000 -6.000000 60.000000
v 50.000000 -6.000000 60.000000
v -40.000000 -6.000000 60.000000
v -30.000000 -6.000000 60.000000
v -20.000000 -6.000000 60.000000
v -10.000000 -6.000000 60.000000
v 0.000000 -6.000000 60.000000
v 10.000000 -6.000000 60.000000
v 20.000000 -6.000000 60.000000
v 30.000000 -6.000000 60.000000
v 40.000000 -6.000000 60.000000
v 60.000000 -6.000000 60.000000
v -60.000000 -6.000000 60.000000
v 70.000000 -6.000000 50.000000
v 70.000000 -6.000000 -50.000000
v 70.000000 -6.000000 40.000000
v 70.000000 -6.000000 30.000000
v 70.000000 -6.000000 20.000000
v 70.000000 -6.000000 10.000000
v 70.000000 -6.000000 0.000000
v 70.000000 -6.000000 -10.000000
v 70.000000 -6.000000 -20.000000
v 70.000000 -6.000000 -30.000000
v 70.000000 -6.000000 -40.000000
v 70.000000 -6.000000 -60.000000
v 70.000000 -6.000000 60.000000
vn -0.0000 1.0000 -0.0000
vn -0.2873 0.9578 -0.0000
vn -0.0000 0.9578 -0.2873
vn 0.2873 0.9578 -0.0000
vn -0.0000 0.9578 0.2873
vt -5.012756 -4.011103
vt 5.014866 -4.011103
vt -5.012756 6.016519
vt 5.014866 6.016519
vt -4.009993 -4.011103
vt -3.007231 -4.011103
vt -2.004470 -4.011103
vt -1.001707 -4.011103
vt 0.001055 -4.011103
vt 1.003817 -4.011103
vt 2.006580 -4.011103
vt 3.009341 -4.011103
vt 4.012104 -4.011103
vt 4.012104 6.016519
vt 3.009341 6.016519
vt 2.006580 6.016519
vt 1.003817 6.016519
vt 0.001055 6.016519
vt -1.001707 6.016519
vt -2.004470 6.016519
vt -3.007231 6.016519
vt -4.009993 6.016519
vt -5.012756 5.013757
vt -5.012756 4.010995
vt -5.012756 3.008233
vt -5.012756 2.005471
vt -5.012756 1.002708
vt -5.012756 -0.000054
vt -5.012756 -1.002817
vt -5.012756 -2.005578
vt -5.012756 -3.008340
vt 5.014866 -3.008340
vt 5.014866 -2.005578
vt 5.014866 -1.002817
vt 5.014866 -0.000054
vt 5.014866 1.002708
vt 5.014866 2.005471
vt 5.014866 3.008233
vt 5.014866 4.010995
vt 5.014866 5.013757
vt -4.009993 -3.008340
vt -4.009993 -2.005578
vt -4.009993 -1.002817
vt -4.009993 -0.000054
vt -4.009993 1.002708
vt -4.009993 2.005471
vt -4.009993 3.008233
vt -4.009993 4.010995
vt -4.009993 5.013757
vt -3.007231 -3.008340
vt -3.007231 -2.005578
vt -3.007231 -1.002817
vt -3.007231 -0.000054
vt -3.007231 1.002708
vt -3.007231 2.005471
vt -3.007231 3.008233
vt -3.007231 4.010995
vt -3.007231 5.013757
vt -2.004470 -3.008340
vt -2.004470 -2.005578
vt -2.004470 -1.002817
vt -2.004470 -0.000054
vt -2.004470 1.002708
vt -2.004470 2.005471
vt -2.004470 3.008233
vt -2.004470 4.010995
vt -2.004470 5.013757
vt -1.001707 -3.008340
vt -1.001707 -2.005578
vt -1.001707 -1.002817
vt -1.001707 -0.000054
vt -1.001707 1.002708
vt -1.001707 2.005471
vt -1.001707 3.008233
vt -1.001707 4.010995
vt -1.001707 5.013757
vt 0.001055 -3.008340
vt 0.001055 -2.005578
vt 0.001055 -1.002817
vt 0.001055 -0.000054
vt 0.001055 1.002708
vt 0.001055 2.005471
vt 0.001055 3.008233
vt 0.001055 4.010995
vt 0.001055 5.013757
vt 1.003817 -3.008340
vt 1.003817 -2.005578
vt 1.003817 -1.002817
vt 1.003817 -0.000054
vt 1.003817 1.002708
vt 1.003817 2.005471
vt 1.003817 3.008233
vt 1.003817 4.010995
vt 1.003817 5.013757
vt 2.006580 -3.008340
vt 2.006580 -2.005578
vt 2.006580 -1.002817
vt 2.006580 -0.000054
vt 2.006580 1.002708
vt 2.006580 2.005471
vt 2.006580 3.008233
vt 2.006580 4.010995
vt 2.006580 5.013757
vt 3.009341 -3.008340
vt 3.009341 -2.005578
vt 3.009341 -1.002817
vt 3.009341 -0.000054
vt 3.009341 1.002708
vt 3.009341 2.005471
vt 3.009341 3.008233
vt 3.009341 4.010995
vt 3.009341 5.013757
vt 4.012104 -3.008340
vt 4.012104 -2.005578
vt 4.012104 -1.002817
vt 4.012104 -0.000054
vt 4.012104 1.002708
vt 4.012104 2.005471
vt 4.012104 3.008233
vt 4.012104 4.010995
vt 4.012104 5.013757
vt 6.017628 -4.011103
vt 6.017628 6.016519
vt 6.017628 -3.008340
vt 6.017628 -2.005578
vt 6.017628 -1.002817
vt 6.017628 -0.000054
vt 6.017628 1.002708
vt 6.017628 2.005471
vt 6.017628 3.008233
vt 6.017628 4.010995
vt 6.017628 5.013757
vt -5.012756 7.019283
vt 5.014866 7.019283
vt 4.012104 7.019283
vt 3.009341 7.019283
vt 2.006580 7.019283
vt 1.003817 7.019283
vt 0.001055 7.019283
vt -1.001707 7.019283
vt -2.004470 7.019283
vt -3.007231 7.019283
vt -4.009993 7.019283
vt 6.017628 7.019283
vt -6.015518 -4.011103
vt -6.015518 6.016519
vt -6.015518 5.013757
vt -6.015518 4.010995
vt -6.015518 3.008233
vt -6.015518 2.005471
vt -6.015518 1.002708
vt -6.015518 -0.000054
vt -6.015518 -1.002817
vt -6.015518 -2.005578
vt -6.015518 -3.008340
vt -6.015518 7.019283
vt -5.012756 -5.013865
vt 5.014866 -5.013865
vt -4.009993 -5.013865
vt -3.007231 -5.013865
vt -2.004470 -5.013865
vt -1.001707 -5.013865
vt 0.001055 -5.013865
vt 1.003817 -5.013865
vt 2.006580 -5.013865
vt 3.009341 -5.013865
vt 4.012104 -5.013865
vt 6.017628 -5.013865
vt -6.015518 -5.013865
vt 7.020390 -4.011103
vt 7.020390 6.016519
vt 7.020390 -3.008340
vt 7.020390 -2.005578
vt 7.020390 -1.002817
vt 7.020390 -0.000054
vt 7.020390 1.002708
vt 7.020390 2.005471
vt 7.020390 3.008233
vt 7.020390 4.010995
vt 7.020390 5.013757
vt 7.020390 7.019283
vt 7.020390 -5.013865
s 0
usemtl Material.001
f 121/121/1 40/40/1 4/4/1 14/14/1
f 23/23/1 49/49/1 22/22/1 3/3/1
f 49/49/2 58/58/2 22/22/2
f 58/58/3 67/67/3 21/21/3
f 67/67/1 76/76/1 19/19/1 20/20/1
f 76/76/2 85/85/2 19/19/2
f 85/85/3 94/94/3 17/17/3 18/18/3
f 94/94/3 103/103/3 16/16/3 17/17/3
f 103/103/4 112/112/4 15/15/4
f 112/112/4 121/121/4 14/14/4 15/15/4
f 12/12/5 13/13/5 113/113/5 104/104/5
f 104/104/1 113/113/1 114/114/1 105/105/1
f 105/105/1 114/114/1 115/115/1 106/106/1
f 106/106/1 115/115/1 116/116/1 107/107/1
f 107/107/1 116/116/1 117/117/1 108/108/1
f 108/108/3 117/117/3 118/118/3
f 109/109/4 118/118/4 119/119/4
f 110/110/3 119/119/3 120/120/3
f 111/111/4 120/120/4 121/121/4 112/112/4
f 11/11/5 12/12/5 104/104/5 95/95/5
f 95/95/1 104/104/1 105/105/1 96/96/1
f 96/96/1 105/105/1 106/106/1 97/97/1
f 97/97/1 106/106/1 107/107/1 98/98/1
f 98/98/1 107/107/1 108/108/1 99/99/1
f 99/99/1 108/108/1 109/109/1 100/100/1
f 100/100/3 109/109/3 110/110/3
f 101/101/4 110/110/4 111/111/4 102/102/4
f 102/102/4 111/111/4 112/112/4 103/103/4
f 10/10/5 11/11/5 95/95/5 86/86/5
f 86/86/5 95/95/5 87/87/5
f 87/87/4 96/96/4 97/97/4 88/88/4
f 88/88/4 97/97/4 98/98/4 89/89/4
f 89/89/4 98/98/4 99/99/4 90/90/4
f 90/90/4 99/99/4 100/100/4 91/91/4
f 91/91/4 100/100/4 101/101/4 92/92/4
f 92/92/4 101/101/4 102/102/4
f 93/93/1 102/102/1 103/103/1 94/94/1
f 9/9/5 10/10/5 86/86/5 77/77/5
f 77/77/5 86/86/5 87/87/5 78/78/5
f 78/78/5 87/87/5 79/79/5
f 79/79/4 88/88/4 89/89/4 80/80/4
f 80/80/4 89/89/4 90/90/4
f 81/81/1 90/90/1 91/91/1 82/82/1
f 82/82/1 91/91/1 92/92/1 83/83/1
f 83/83/3 92/92/3 93/93/3 84/84/3
f 84/84/1 93/93/1 94/94/1 85/85/1
f 8/8/5 9/9/5 77/77/5 68/68/5
f 68/68/5 77/77/5 78/78/5 69/69/5
f 69/69/5 78/78/5 79/79/5 70/70/5
f 70/70/1 79/79/1 80/80/1 71/71/1
f 71/71/3 80/80/3 81/81/3 72/72/3
f 72/72/1 81/81/1 82/82/1 73/73/1
f 73/73/1 82/82/1 83/83/1 74/74/1
f 74/74/3 83/83/3 84/84/3 75/75/3
f 75/75/3 84/84/3 76/76/3
f 7/7/5 8/8/5 68/68/5 59/59/5
f 59/59/5 68/68/5 69/69/5 60/60/5
f 60/60/5 69/69/5 70/70/5
f 61/61/2 70/70/2 71/71/2 62/62/2
f 62/62/2 71/71/2 63/63/2
f 63/63/3 72/72/3 64/64/3
f 64/64/2 73/73/2 74/74/2 65/65/2
f 65/65/2 74/74/2 66/66/2
f 66/66/3 75/75/3 76/76/3 67/67/3
f 6/6/5 7/7/5 59/59/5 50/50/5
f 50/50/5 59/59/5 60/60/5
f 51/51/2 60/60/2 61/61/2 52/52/2
f 52/52/2 61/61/2 62/62/2 53/53/2
f 53/53/2 62/62/2 63/63/2 54/54/2
f 54/54/2 63/63/2 55/55/2
f 55/55/3 64/64/3 56/56/3
f 56/56/2 65/65/2 66/66/2 57/57/2
f 57/57/2 66/66/2 58/58/2
f 5/5/2 50/50/2 41/41/2
f 41/41/2 50/50/2 51/51/2
f 42/42/1 51/51/1 52/52/1 43/43/1
f 43/43/1 52/52/1 53/53/1 44/44/1
f 44/44/1 53/53/1 54/54/1 45/45/1
f 45/45/1 54/54/1 55/55/1 46/46/1
f 46/46/3 55/55/3 56/56/3 47/47/3
f 47/47/3 56/56/3 48/48/3
f 48/48/2 57/57/2 58/58/2 49/49/2
f 1/1/2 5/5/2 41/41/2
f 31/31/5 41/41/5 42/42/5
f 30/30/2 42/42/2 43/43/2 29/29/2
f 29/29/2 43/43/2 44/44/2 28/28/2
f 28/28/2 44/44/2 45/45/2 27/27/2
f 27/27/2 45/45/2 46/46/2 26/26/2
f 26/26/2 46/46/2 25/25/2
f 25/25/3 47/47/3 48/48/3 24/24/3
f 24/24/1 48/48/1 49/49/1 23/23/1
f 13/13/5 2/2/5 113/113/5
f 113/113/4 32/32/4 114/114/4
f 114/114/1 33/33/1 34/34/1 115/115/1
f 115/115/1 34/34/1 35/35/1 116/116/1
f 116/116/1 35/35/1 36/36/1 117/117/1
f 117/117/3 36/36/3 37/37/3 118/118/3
f 118/118/3 37/37/3 38/38/3
f 119/119/4 38/38/4 39/39/4
f 120/120/1 39/39/1 40/40/1 121/121/1
f 32/32/4 2/2/4 122/122/4
f 39/39/1 38/38/1 130/130/1 131/131/1
f 36/36/4 35/35/4 127/127/4 128/128/4
f 33/33/4 124/124/4 125/125/4
f 40/40/1 39/39/1 131/131/1 132/132/1
f 37/37/3 36/36/3 129/129/3
f 34/34/4 33/33/4 125/125/4 126/126/4
f 38/38/3 37/37/3 129/129/3 130/130/3
f 4/4/1 40/40/1 132/132/1 123/123/1
f 35/35/4 34/34/4 126/126/4 127/127/4
f 16/16/3 15/15/3 136/136/3 137/137/3
f 4/4/1 123/123/1 144/144/1 134/134/1
f 20/20/3 19/19/3 140/140/3 141/141/3
f 17/17/3 16/16/3 137/137/3 138/138/3
f 14/14/1 4/4/1 134/134/1 135/135/1
f 3/3/1 22/22/1 143/143/1 133/133/1
f 21/21/2 20/20/2 142/142/2
f 18/18/3 17/17/3 138/138/3 139/139/3
f 15/15/3 135/135/3 136/136/3
f 22/22/1 21/21/1 142/142/1 143/143/1
f 19/19/3 18/18/3 139/139/3 140/140/3
f 24/24/1 23/23/1 147/147/1 148/148/1
f 31/31/2 30/30/2 154/154/2 155/155/2
f 28/28/2 27/27/2 151/151/2 152/152/2
f 25/25/2 148/148/2 149/149/2
f 3/3/1 133/133/1 156/156/1 146/146/1
f 29/29/2 28/28/2 152/152/2 153/153/2
f 26/26/2 25/25/2 149/149/2 150/150/2
f 1/1/5 31/31/5 145/145/5
f 23/23/1 3/3/1 146/146/1 147/147/1
f 30/30/2 29/29/2 153/153/2 154/154/2
f 27/27/2 26/26/2 150/150/2 151/151/2
f 6/6/5 5/5/5 159/159/5 160/160/5
f 13/13/5 12/12/5 166/166/5 167/167/5
f 122/122/4 2/2/4 168/168/4
f 10/10/5 9/9/5 163/163/5 164/164/5
f 7/7/5 6/6/5 160/160/5 161/161/5
f 11/11/5 10/10/5 164/164/5 165/165/5
f 8/8/5 7/7/5 161/161/5 162/162/5
f 1/1/1 145/145/1 169/169/1 157/157/1
f 5/5/2 1/1/2 157/157/2
f 12/12/5 11/11/5 165/165/5 166/166/5
f 2/2/5 13/13/5 167/167/5 158/158/5
f 9/9/5 8/8/5 162/162/5 163/163/5
f 122/122/1 168/168/1 182/182/1 170/170/1
f 129/129/4 128/128/4 176/176/4 177/177/4
f 126/126/4 125/125/4 173/173/4 174/174/4
f 144/144/1 123/123/1 171/171/1 181/181/1
f 123/123/1 132/132/1 180/180/1 171/171/1
f 130/130/3 129/129/3 178/178/3
f 127/127/4 126/126/4 174/174/4 175/175/4
f 124/124/5 122/122/5 170/170/5
f 131/131/1 130/130/1 178/178/1 179/179/1
f 128/128/4 127/127/4 175/175/4 176/176/4
f 125/125/4 124/124/4 172/172/4 173/173/4
f 132/132/1 131/131/1 179/179/1 180/180/1
f 90/90/3 81/81/3 80/80/3
f 118/118/4 109/109/4 108/108/4
f 38/38/4 119/119/4 118/118/4
f 119/119/3 110/110/3 109/109/3
f 39/39/3 120/120/3 119/119/3
f 110/110/4 101/101/4 100/100/4
f 120/120/4 111/111/4 110/110/4
f 178/178/4 129/129/4 177/177/4
f 129/129/4 36/36/4 128/128/4
f 124/124/5 33/33/5 32/32/5
f 170/170/4 172/172/4 124/124/4
f 122/122/5 124/124/5 32/32/5
f 114/114/5 32/32/5 33/33/5
f 168/168/5 2/2/5 158/158/5
f 113/113/4 2/2/4 32/32/4
f 79/79/4 87/87/4 88/88/4
f 87/87/4 95/95/4 96/96/4
f 50/50/5 5/5/5 6/6/5
f 70/70/2 61/61/2 60/60/2
f 60/60/2 51/51/2 50/50/2
f 157/157/5 159/159/5 5/5/5
f 51/51/5 42/42/5 41/41/5
f 41/41/5 31/31/5 1/1/5
f 42/42/2 30/30/2 31/31/2
f 145/145/2 31/31/2 155/155/2
f 148/148/3 25/25/3 24/24/3
f 25/25/3 46/46/3 47/47/3
f 48/48/2 56/56/2 57/57/2
f 56/56/2 64/64/2 65/65/2
f 64/64/2 72/72/2 73/73/2
f 66/66/3 74/74/3 75/75/3
f 22/22/3 58/58/3 21/21/3
f 58/58/3 66/66/3 67/67/3
f 21/21/2 67/67/2 20/20/2
f 142/142/3 20/20/3 141/141/3
f 19/19/3 85/85/3 18/18/3
f 55/55/3 63/63/3 64/64/3
f 63/63/3 71/71/3 72/72/3
f 102/102/3 93/93/3 92/92/3
f 15/15/3 16/16/3 103/103/3
f 135/135/4 15/15/4 14/14/4
f 76/76/2 84/84/2 85/85/2
